<?xml version="1.0" encoding="iso-8859-1"?>
<!-- Generator: Adobe Illustrator 19.0.0, SVG Export Plug-In . SVG Version: 6.00 Build 0)  -->
<svg version="1.1" id="Capa_1" xmlns="http://www.w3.org/2000/svg" xmlns:xlink="http://www.w3.org/1999/xlink" x="0px" y="0px"
	 viewBox="0 0 480 480" style="enable-background:new 0 0 480 480;" xml:space="preserve">
<g>
	<g>
		<path d="M240,0C111.523,0,32,95.508,32,184c0,58.773,26.867,122.523,72,171.164V440c-0.003,4.416,3.575,7.997,7.991,8
			c0.003,0,0.006,0,0.009,0h32v24c-0.003,4.416,3.575,7.997,7.991,8c0.003,0,0.006,0,0.009,0h176c4.416,0.003,7.997-3.575,8-7.991
			c0-0.003,0-0.006,0-0.009v-24h32c4.416,0.003,7.997-3.575,8-7.991c0-0.003,0-0.006,0-0.009v-84.836
			c45.133-48.641,72-112.391,72-171.164C448,95.508,368.477,0,240,0z M320,464H160v-16h160V464z M360,432H120v-16h240V432z M360,400
			H120v-16h240V400z M362.195,346.492c-1.408,1.488-2.194,3.459-2.195,5.508v16H120v-16c-0.001-2.049-0.787-4.02-2.195-5.508
			C74.094,300.469,48,239.727,48,184c0-80.797,73.406-168,192-168s192,87.203,192,168C432,239.727,405.906,300.469,362.195,346.492z
			"/>
	</g>
</g>
<g>
	<g>
		<path d="M393.641,166.203l-17.703-3.703c-0.867-3.859-1.914-7.727-3.133-11.555l13.563-12.102c2.561-2.29,3.378-5.957,2.031-9.117
			c-5.194-11.991-11.831-23.304-19.766-33.688c-2.049-2.734-5.617-3.851-8.859-2.773l-17.109,5.594
			c-2.719-2.953-5.57-5.797-8.531-8.5l5.594-16.984c1.077-3.26-0.046-6.843-2.789-8.906c-10.434-7.907-21.791-14.516-33.82-19.68
			c-3.144-1.329-6.785-0.519-9.07,2.016l-12.18,13.531c-3.852-1.211-7.719-2.25-11.602-3.117l-3.758-18.789
			c-0.747-3.739-4.031-6.43-7.844-6.43h-37.328c-3.813-0.001-7.096,2.691-7.844,6.43l-3.758,18.789
			c-3.875,0.859-7.742,1.898-11.602,3.117l-12.18-13.531c-2.291-2.525-5.925-3.333-9.07-2.016
			c-12.028,5.167-23.385,11.775-33.82,19.68c-2.743,2.063-3.866,5.647-2.789,8.906l5.602,16.984c-2.969,2.711-5.82,5.555-8.531,8.5
			l-17.102-5.602c-3.243-1.058-6.8,0.052-8.867,2.766c-7.94,10.389-14.581,21.71-19.773,33.711
			c-1.346,3.158-0.529,6.822,2.031,9.109l13.562,12.102c-1.219,3.828-2.266,7.688-3.133,11.547l-17.703,3.711
			c-3.706,0.775-6.36,4.042-6.359,7.828v37.18c-0.001,3.786,2.654,7.053,6.359,7.828l17.703,3.703
			c0.867,3.859,1.914,7.727,3.133,11.555l-13.562,12.102c-2.561,2.29-3.378,5.957-2.031,9.117
			c5.194,11.991,11.831,23.304,19.766,33.688c2.053,2.728,5.617,3.844,8.859,2.773l17.109-5.594c2.719,2.953,5.57,5.797,8.531,8.5
			l-5.594,16.984c-1.078,3.257,0.045,6.839,2.789,8.898c10.432,7.912,21.789,14.524,33.82,19.688
			c3.144,1.329,6.785,0.519,9.07-2.016l12.18-13.531c3.867,1.219,7.766,2.266,11.656,3.133l3.719,17.617
			c0.783,3.698,4.048,6.344,7.828,6.344h37.328c3.78,0,7.045-2.646,7.828-6.344l3.719-17.617c3.891-0.867,7.789-1.914,11.656-3.133
			l12.18,13.531c2.284,2.538,5.926,3.348,9.07,2.016c12.031-5.165,23.388-11.776,33.82-19.688c2.744-2.059,3.867-5.641,2.789-8.898
			l-5.594-16.977c2.945-2.695,5.797-5.539,8.523-8.5l17.109,5.594c3.241,1.071,6.804-0.041,8.859-2.766
			c7.94-10.389,14.581-21.71,19.773-33.711c1.346-3.158,0.529-6.822-2.031-9.109l-13.563-12.102
			c1.219-3.828,2.266-7.688,3.133-11.547l17.703-3.711c3.706-0.775,6.361-4.042,6.36-7.828v-37.18
			C400.001,170.245,397.346,166.978,393.641,166.203z M384,204.711l-16.492,3.461c-3.186,0.666-5.652,3.196-6.234,6.398
			c-1.209,6.62-2.97,13.127-5.266,19.453c-1.112,3.072-0.242,6.512,2.195,8.688l13.125,11.711
			c-3.469,7.171-7.519,14.045-12.109,20.555l-16.578-5.422c-3.08-1.009-6.465-0.059-8.57,2.406
			c-4.388,5.147-9.188,9.929-14.352,14.297c-2.497,2.108-3.462,5.522-2.437,8.625l5.422,16.445
			c-6.546,4.582-13.457,8.619-20.664,12.07l-11.789-13.102c-2.168-2.413-5.58-3.274-8.633-2.18c-6.37,2.278-12.915,4.034-19.57,5.25
			c-3.201,0.578-5.734,3.036-6.406,6.219L252.18,336H227.82l-3.461-16.414c-0.673-3.182-3.205-5.641-6.406-6.219
			c-6.655-1.215-13.201-2.971-19.57-5.25c-3.053-1.106-6.471-0.243-8.633,2.18l-11.789,13.102
			c-7.206-3.453-14.117-7.49-20.664-12.07l5.422-16.453c1.025-3.103,0.06-6.517-2.437-8.625c-5.168-4.362-9.968-9.141-14.352-14.289
			c-2.106-2.468-5.494-3.422-8.578-2.414l-16.57,5.422c-4.592-6.505-8.639-13.377-12.101-20.547l13.117-11.711
			c2.438-2.175,3.307-5.615,2.195-8.688c-2.294-6.329-4.055-12.839-5.266-19.461c-0.583-3.203-3.048-5.733-6.234-6.398L96,204.711
			v-24.18l16.492-3.461c3.186-0.666,5.652-3.196,6.234-6.398c1.209-6.62,2.971-13.127,5.266-19.453
			c1.112-3.072,0.242-6.512-2.195-8.687l-13.125-11.711c3.467-7.169,7.517-14.041,12.109-20.547l16.57,5.422
			c3.087,1.008,6.477,0.055,8.586-2.414c4.391-5.15,9.193-9.934,14.359-14.305c2.487-2.111,3.445-5.52,2.422-8.617l-5.422-16.445
			c6.548-4.583,13.462-8.62,20.672-12.07l11.781,13.102c2.158,2.428,5.58,3.292,8.633,2.18c6.366-2.282,12.909-4.036,19.563-5.242
			c3.234-0.583,5.783-3.083,6.43-6.305L227.891,48h24.219l3.516,17.578c0.644,3.223,3.194,5.724,6.43,6.305
			c6.654,1.208,13.197,2.961,19.563,5.242c3.053,1.099,6.468,0.237,8.633-2.18l11.789-13.102c7.206,3.453,14.117,7.49,20.664,12.07
			l-5.422,16.453c-1.025,3.103-0.06,6.517,2.437,8.625c5.167,4.362,9.968,9.141,14.352,14.289c2.11,2.462,5.494,3.414,8.578,2.414
			l16.57-5.422c4.592,6.505,8.64,13.377,12.102,20.547l-13.117,11.711c-2.438,2.175-3.307,5.615-2.195,8.687
			c2.294,6.329,4.055,12.839,5.266,19.461c0.583,3.203,3.048,5.733,6.234,6.398L384,180.531V204.711z"/>
	</g>
</g>
<g>
	<g>
		<path d="M309.922,192c3.88-6.841,7.116-14.028,9.664-21.469c7.422-22.258,5.273-40.75-6.047-52.07
			c-11.305-11.32-29.789-13.461-52.07-6.047c-7.441,2.548-14.628,5.784-21.469,9.664c-6.841-3.88-14.028-7.116-21.469-9.664
			c-22.266-7.414-40.758-5.281-52.07,6.047c-11.32,11.32-13.469,29.813-6.047,52.07c2.548,7.441,5.784,14.628,9.664,21.469
			c-3.881,6.841-7.116,14.028-9.664,21.469c-7.422,22.258-5.274,40.75,6.047,52.07c7.506,7.104,17.575,10.854,27.898,10.391
			c8.237-0.149,16.398-1.616,24.172-4.344c7.441-2.548,14.628-5.783,21.469-9.664c6.841,3.881,14.028,7.116,21.469,9.664
			c7.774,2.728,15.934,4.195,24.172,4.344c10.324,0.462,20.392-3.288,27.898-10.391c11.32-11.32,13.469-29.813,6.047-52.07
			C317.038,206.028,313.802,198.841,309.922,192z M177.773,129.773c4.585-4.037,10.592-6.079,16.688-5.672
			c6.481,0.148,12.897,1.327,19.008,3.492c3.716,1.272,7.355,2.755,10.902,4.441c-17.077,12.286-32.05,27.259-44.336,44.336
			c-1.687-3.546-3.17-7.186-4.442-10.902C170.266,149.492,171.063,136.485,177.773,129.773z M213.469,256.406
			c-15.977,5.336-28.984,4.539-35.695-2.18c-6.711-6.711-7.508-19.719-2.18-35.695c1.272-3.716,2.755-7.355,4.441-10.902
			c6.129,8.527,12.942,16.542,20.371,23.964c7.423,7.429,15.437,14.242,23.964,20.371
			C220.824,253.652,217.184,255.135,213.469,256.406z M188.707,192c13.405-20.43,30.863-37.889,51.293-51.293
			c20.43,13.405,37.889,30.863,51.293,51.293c-13.405,20.43-30.863,37.889-51.293,51.293C219.57,229.889,202.111,212.43,188.707,192
			z M302.227,254.226c-6.719,6.719-19.719,7.516-35.695,2.18c-3.716-1.272-7.355-2.755-10.902-4.441
			c17.077-12.286,32.05-27.259,44.336-44.336c1.687,3.547,3.17,7.186,4.441,10.902v0
			C309.734,234.508,308.938,247.515,302.227,254.226z M304.406,165.469c-1.272,3.716-2.755,7.355-4.441,10.902
			c-12.286-17.077-27.259-32.05-44.336-44.336c3.546-1.687,7.186-3.17,10.902-4.442c6.111-2.165,12.527-3.344,19.008-3.492
			c6.096-0.407,12.102,1.635,16.688,5.672C308.938,136.485,309.735,149.492,304.406,165.469z"/>
	</g>
</g>
<g>
	<g>
		<path d="M240,180c-6.627,0-12,5.373-12,12c0,6.627,5.373,12,12,12c6.627,0,12-5.373,12-12
			C251.993,185.376,246.624,180.007,240,180z M240,196c-2.209,0-4-1.791-4-4c0-2.209,1.791-4,4-4c2.209,0,4,1.791,4,4
			C243.996,194.207,242.207,195.996,240,196z"/>
	</g>
</g>
<g>
	<g>
		<polygon points="32,16 32,10.288 32,0 16,0 16,10.288 16,16 0,16 0,32 16,32 16,48 32,48 32,32 48,32 48,16 		"/>
	</g>
</g>
<g>
	<g>
		<polygon points="464,16 464,10.288 464,0 448,0 448,10.288 448,16 432,16 432,32 448,32 448,48 464,48 464,32 480,32 480,16 		"/>
	</g>
</g>
<g>
	<g>
		<polygon points="56,448 56,432 40,432 40,448 24,448 24,464 40,464 40,468 40,480 56,480 56,468 56,464 72,464 72,448 		"/>
	</g>
</g>
<g>
	<g>
		<polygon points="464,432 464,426.288 464,416 448,416 448,426.288 448,432 432,432 432,448 448,448 448,464 464,464 464,448 
			480,448 480,432 		"/>
	</g>
</g>
<g>
</g>
<g>
</g>
<g>
</g>
<g>
</g>
<g>
</g>
<g>
</g>
<g>
</g>
<g>
</g>
<g>
</g>
<g>
</g>
<g>
</g>
<g>
</g>
<g>
</g>
<g>
</g>
<g>
</g>
</svg>
